<mxfile host="app.diagrams.net" modified="2023-11-17T07:38:09.102Z" agent="Mozilla/5.0 (Macintosh; Intel Mac OS X 10_15_7) AppleWebKit/537.36 (KHTML, like Gecko) Chrome/119.0.0.0 Safari/537.36" version="22.1.2" etag="mZQvbLu2_4hh3pzbetw9" type="github">
  <diagram name="第 1 页" id="KWajqVDCcNYa3_Q6y5C-">
    <mxGraphModel>
      <root>
        <mxCell id="0" />
        <mxCell id="1" parent="0" />
      </root>
    </mxGraphModel>
  </diagram>
</mxfile>
